<?xml version="1.0" encoding="UTF-8"?>
<svg width="63px" height="22px" viewBox="0 0 63 22" version="1.1" xmlns="http://www.w3.org/2000/svg" xmlns:xlink="http://www.w3.org/1999/xlink">
    <!-- Generator: Sketch 41.2 (35397) - http://www.bohemiancoding.com/sketch -->
    <title>Logo Bevy Footer</title>
    <desc>Created with Sketch.</desc>
    <defs>
        <polygon id="path-1" points="21.6903563 0.0568965517 0 0.0568965517 0 21.7470759 21.6903563 21.7470759 21.6903563 0.0568965517"></polygon>
    </defs>
    <g id="Symbols" stroke="none" stroke-width="1" fill="none" fill-rule="evenodd">
        <g id="Footer" transform="translate(-1228.000000, -248.000000)">
            <g id="Logo-Bevy-Footer" transform="translate(1228.000000, 248.000000)">
                <g id="Page-1">
                    <g id="Group-3" transform="translate(0.000000, 0.195952)">
                        <mask id="mask-2" fill="white">
                            <use xlink:href="#path-1"></use>
                        </mask>
                        <g id="Clip-2"></g>
                        <path d="M15.8623793,15.3433057 C15.6540115,15.7479034 15.3748391,16.0895356 15.0246092,16.368708 C14.6733678,16.6481333 14.2599195,16.8623172 13.785023,17.0112598 C13.3091149,17.1596966 12.8036207,17.2337885 12.2687931,17.2337885 L6.22258621,17.2337885 L6.22258621,11.8824782 L9.9501954,10.7741333 L6.22258621,9.69208736 L6.22258621,4.57038621 L12.7502644,4.57038621 C13.1902644,4.57038621 13.5887931,4.66597241 13.9453448,4.85613333 C14.3018966,5.04629425 14.6053448,5.29284598 14.8551839,5.59604138 C15.105023,5.89923678 15.2979655,6.2444092 15.4347701,6.63054713 C15.5715747,7.0171908 15.6398506,7.40636322 15.6398506,7.79882299 C15.6398506,8.41735172 15.4818046,8.99668506 15.1672299,9.53758161 C14.8518966,10.0789839 14.403046,10.4800414 13.8206782,10.7417655 C14.5454138,10.9551908 15.1194368,11.344869 15.5412299,11.9097885 C15.9632759,12.4744552 16.1746782,13.1612598 16.1746782,13.9696966 C16.1746782,14.4810069 16.0699885,14.9389609 15.8623793,15.3433057 M10.8451149,0.056845977 C4.8558046,0.056845977 -0.000126436782,4.91227126 -0.000126436782,10.9020874 C-0.000126436782,16.8916506 4.8558046,21.7470759 10.8451149,21.7470759 C16.834931,21.7470759 21.6903563,16.8916506 21.6903563,10.9020874 C21.6903563,4.91227126 16.834931,0.056845977 10.8451149,0.056845977" id="Fill-1" fill="#999999" mask="url(#mask-2)"></path>
                    </g>
                    <path d="M27.6153356,14.4991126 L29.2759563,14.5054345 C29.9690828,14.5079632 30.4894966,14.4250207 30.8371977,14.2550897 C31.1841402,14.0859172 31.3591287,13.7498483 31.360646,13.2481471 C31.362669,12.7461931 31.1795885,12.4149287 30.8131747,12.2533425 C30.446508,12.0912506 29.8595885,12.008308 29.052669,12.0057793 L27.624692,12.000469 L27.6153356,14.4991126 Z M27.6317724,10.0915264 L28.7803241,10.0958253 C29.4529678,10.098354 29.9521402,10.0272966 30.2786,9.88391724 C30.6053126,9.74053793 30.7691747,9.42748046 30.7711977,8.94676782 C30.7727149,8.46554943 30.6240253,8.14667586 30.3243701,7.99014713 C30.0244621,7.83437701 29.5179563,7.75446897 28.8043471,7.75168736 L27.6403701,7.74764138 L27.6317724,10.0915264 Z M29.9359563,16.5567448 L25.1864851,16.5387908 L25.2264391,5.6900092 L29.4481632,5.70543448 C30.1830138,5.70796322 30.8162092,5.7989977 31.348508,5.97626207 C31.880554,6.15428506 32.2806,6.39350345 32.5488989,6.69518161 C33.0331517,7.25529655 33.2738874,7.88748046 33.2713586,8.59097471 C33.2680713,9.43961839 32.9919333,10.0695264 32.4419333,10.4817103 C32.2550598,10.6261011 32.1253356,10.7158713 32.0530138,10.7517793 C31.9804391,10.7879402 31.8507149,10.8468598 31.6638414,10.9290437 C32.3362322,11.076469 32.870554,11.3806759 33.2673126,11.8426759 C33.6638184,12.3046759 33.8610598,12.8771816 33.858531,13.5601931 C33.8557494,14.3152736 33.594531,14.9815954 33.0751287,15.5594115 C32.4722782,16.2300322 31.4258874,16.5620552 29.9359563,16.5567448 L29.9359563,16.5567448 Z" id="Fill-4" fill="#999999"></path>
                    <path d="M40.6684414,10.4338667 C40.3483034,10.1640506 39.9578667,10.0280046 39.4978897,10.0264874 C39.037154,10.0244644 38.6148552,10.1627862 38.2317517,10.4404414 C37.8473839,10.7188552 37.6235908,11.0956368 37.5596138,11.5710391 L41.2227402,11.5846943 C41.1726713,11.0883034 40.9883264,10.7044414 40.6684414,10.4338667 L40.6684414,10.4338667 Z M42.8856368,15.3934759 C41.9401425,16.2800506 40.8338207,16.7205563 39.5666713,16.7157517 C38.2987632,16.7112 37.2526253,16.317223 36.4277517,15.5328092 C35.6026253,14.7489011 35.1927172,13.6994759 35.1975218,12.385292 C35.2023264,11.0713609 35.6274069,10.0274989 36.4737747,9.25497011 C37.3201425,8.48142989 38.3174759,8.09756782 39.4662805,8.10161379 C40.6148322,8.10591264 41.5889011,8.45588966 42.3882345,9.15230345 C43.1875678,9.84821149 43.5853379,10.8017977 43.5807862,12.0128092 L43.5759816,13.2544184 L37.4918437,13.2321655 C37.5626483,13.6870851 37.7988322,14.0608322 38.2019126,14.3521425 C38.6039816,14.6432 39.0586483,14.7898667 39.5661655,14.7913839 C40.3832,14.7944184 41.0568552,14.5228322 41.5866253,13.9761195 L42.8856368,15.3934759 Z" id="Fill-6" fill="#999999"></path>
                    <polygon id="Fill-8" fill="#999999" points="47.3663793 16.6203931 44.0911609 8.24269195 46.5124253 8.25154253 48.5728391 13.5209218 50.6724483 8.26671494 53.0932069 8.27556552 49.7565402 16.6292437"></polygon>
                    <path d="M55.6422989,19.9415839 C54.8257701,19.9385494 54.0555172,19.6042506 53.3338161,18.939446 L54.3951264,17.2204115 C54.7873333,17.6047793 55.1901609,17.797469 55.6041149,17.7992391 C55.8213333,17.7999977 56.0077011,17.6942966 56.163977,17.4834 C56.3205057,17.2717448 56.3986437,17.0469402 56.3994023,16.8089862 C56.4004138,16.5710322 55.334046,13.7320207 53.202069,8.29169885 L55.6852874,8.3008023 L57.6996782,13.507469 L59.7522529,8.31546897 L62.2354713,8.32507816 L58.3189655,18.1504805 C58.0891034,18.7189402 57.7335632,19.159446 57.2510805,19.4735149 C56.7688506,19.7878368 56.2322529,19.9438598 55.6422989,19.9415839" id="Fill-10" fill="#999999"></path>
                </g>
            </g>
        </g>
    </g>
</svg>